# xmcd
#
# Track frame offsets:
# 150
# 18675
# 38370
# 54364
# 71500
# 93754
# 108263
# 127929
# 144185
# 164889
# 190693
# 210143
# 223779
# 246897
# 266800
# 286933
# 310379
# 326177
# 343274
# 353712
#
# Disc length: 4799 seconds
#
#
# Revision: 1
# Processed by: cddbd v1.5.1PL0 Copyright (c) Steve Scherf et al.
# Submitted via: FreeRIP 2.942 
#
DISCID=2912bd14
DTITLE=E.L.O - Love Ballads
DYEAR=2002
DGENRE=Blues
TTITLE0=Ticket To The Moon
TTITLE1=Bluebird Is Dead
TTITLE2=Moment In Paradise
TTITLE3=Without Someone
TTITLE4=Take Me On And On
TTITLE5=A Long Time Gone
TTITLE6=Can't Get It Out Of My Head
TTITLE7=Just For Love
TTITLE8=Telephone Line
TTITLE9=One Summer Dream
TTITLE10=Midnight Blue
TTITLE11=In My Own Time
TTITLE12=Big Wheels
TTITLE13=Hello My Old Friend
TTITLE14=Getting To The Point
TTITLE15=I Need Her Love
TTITLE16=When Time Stood Still
TTITLE17=Another Heart Breaks
TTITLE18=After All
TTITLE19=Epilogue
EXTD=
EXTT0=
EXTT1=
EXTT2=
EXTT3=
EXTT4=
EXTT5=
EXTT6=
EXTT7=
EXTT8=
EXTT9=
EXTT10=
EXTT11=
EXTT12=
EXTT13=
EXTT14=
EXTT15=
EXTT16=
EXTT17=
EXTT18=
EXTT19=
PLAYORDER=
